<svg height="496pt" viewBox="0 0 496 496" width="496pt" xmlns="http://www.w3.org/2000/svg"><path d="m456 8 32 48h-416l32-48zm0 0" fill="#fcd770"/><path d="m488 56v32h-416v-32zm0 0" fill="#ffeaa7"/><path d="m472 88v224h-32v-144h-144v-48h-176v160h16v40h-48v-232zm0 0" fill="#ccd1d9"/><path d="m376 408v24h-42.878906c-5.601563-4.960938-13.042969-8-21.121094-8-17.679688 0-32 14.320312-32 32 0-17.679688-14.320312-32-32-32-8.078125 0-15.441406 3.039062-21.121094 8h-90.878906v-152h240zm0 0" fill="#ff826e"/><path d="m72 424c-8.078125 0-15.441406 3.039062-21.121094 8h-42.878906v-72l40-40h88v112h-42.878906c-5.601563-4.960938-13.042969-8-21.121094-8zm0 0" fill="#ff826e"/><path d="m296 120v48h-32v112h-32v-32h-48v32h-64v-160h64v32h48v-32zm0 0" fill="#d3a06c"/><path d="m184 248h48v32h-48zm0 0" fill="#e6e9ed"/><path d="m184 120h48v32h-48zm0 0" fill="#e6e9ed"/><path d="m440 168v144h-48c-8.800781 0-16 7.199219-16 16v-48h-112v-112h64v32h48v-32zm0 0" fill="#cf9e76"/><path d="m328 168h48v32h-48zm0 0" fill="#e6e9ed"/><path d="m472 312c8.800781 0 16 7.199219 16 16v80c0 8.800781-7.199219 16-16 16h-16v-32h-48v32h-16c-8.800781 0-16-7.199219-16-16v-80c0-8.800781 7.199219-16 16-16h16v32h48v-32zm0 0" fill="#cf9e76"/><g fill="#e6e9ed"><path d="m456 312v32h-48v-32zm0 0"/><path d="m408 392h48v32h-48zm0 0"/><path d="m376 448c0 8.800781-7.199219 16-16 16h-16l-.960938-.238281c.640626-2.480469.960938-5.042969.960938-7.761719 0-9.601562-4.238281-18.160156-10.878906-24h42.878906zm0 0"/><path d="m226.878906 432h-133.757812c6.640625 5.839844 10.878906 14.398438 10.878906 24 0 2.640625-.320312 5.28125-.960938 7.761719l.960938.238281h112l.960938-.238281c-.640626-2.480469-.960938-5.042969-.960938-7.761719 0-9.601562 4.238281-18.160156 10.878906-24zm0 0"/><path d="m24 464c-8.800781 0-16-7.199219-16-16v-16h42.878906c-6.640625 5.839844-10.878906 14.398438-10.878906 24 0 2.71875.320312 5.28125.960938 7.761719l-.960938.238281zm0 0"/></g><path d="m40.960938 463.761719c-.640626-2.480469-.960938-5.042969-.960938-7.761719 0-9.601562 4.238281-18.160156 10.878906-24 5.679688-4.960938 13.042969-8 21.121094-8s15.519531 3.039062 21.121094 8c6.640625 5.839844 10.878906 14.398438 10.878906 24 0 2.640625-.320312 5.28125-.960938 7.761719-3.4375 13.917969-16.078124 24.238281-31.039062 24.238281s-27.601562-10.320312-31.039062-24.238281zm0 0" fill="#838f9b"/><path d="m248 424c17.679688 0 32 14.320312 32 32s-14.320312 32-32 32c-14.960938 0-27.601562-10.320312-31.039062-24.238281-.640626-2.480469-.960938-5.042969-.960938-7.761719 0-9.601562 4.238281-18.160156 10.878906-24 5.679688-4.960938 13.042969-8 21.121094-8zm0 0" fill="#838f9b"/><path d="m333.121094 432c6.640625 5.839844 10.878906 14.398438 10.878906 24 0 2.71875-.320312 5.28125-.960938 7.761719-3.4375 13.917969-16.078124 24.238281-31.039062 24.238281-17.679688 0-32-14.320312-32-32s14.320312-32 32-32c8.078125 0 15.519531 3.039062 21.121094 8zm0 0" fill="#838f9b"/><path d="m208 312h96v88h-96zm0 0" fill="#cf9e76"/><path d="m104 352v48h-64v-24l24-24zm0 0" fill="#69d6f4"/><path d="m80 456c0 4.417969-3.582031 8-8 8s-8-3.582031-8-8 3.582031-8 8-8 8 3.582031 8 8zm0 0"/><path d="m320 456c0 4.417969-3.582031 8-8 8s-8-3.582031-8-8 3.582031-8 8-8 8 3.582031 8 8zm0 0"/><path d="m256 456c0 4.417969-3.582031 8-8 8s-8-3.582031-8-8 3.582031-8 8-8 8 3.582031 8 8zm0 0"/><path d="m112 344h-51.3125l-28.6875 28.6875v35.3125h80zm-16 48h-48v-12.6875l19.3125-19.3125h28.6875zm0 0"/><path d="m496 96v-42.425781l-35.71875-53.574219h-360.5625l-35.71875 53.574219v42.425781h16v216h-35.3125l-44.6875 44.6875v91.3125c0 13.230469 10.769531 24 24 24h11.390625c6.195313 14.105469 20.25 24 36.609375 24s30.414062-9.894531 36.609375-24h102.78125c6.195313 14.105469 20.25 24 36.609375 24 13.128906 0 24.703125-6.449219 32-16.246094 7.296875 9.796875 18.871094 16.246094 32 16.246094 16.359375 0 30.414062-9.894531 36.609375-24h11.390625c13.230469 0 24-10.769531 24-24v-17.472656c2.511719.898437 5.183594 1.472656 8 1.472656h80c13.230469 0 24-10.769531 24-24v-80c0-10.414062-6.710938-19.214844-16-22.527344v-209.472656zm-387.71875-80h343.4375l21.335938 32h-9.054688v16h16v16h-400v-16h16v-16h-9.054688zm-56.96875 312h76.6875v96h-32.246094c-6.664062-4.960938-14.832031-8-23.753906-8s-17.089844 3.039062-23.753906 8h-32.246094v-60.6875zm140.6875-200h32v16h-32zm48 32v-32h48v32h-32v112h-16v-32h-64v32h-48v-144h48v32zm96 16h32v16h-32zm48 32v-32h48v128h-40c-2.816406 0-5.488281.574219-8 1.472656v-33.472656h-112v-96h48v32zm32 112h32v16h-32zm-80.246094 104c-6.664062-4.960938-14.832031-8-23.753906-8-13.128906 0-24.703125 6.449219-32 16.246094-7.296875-9.796875-18.871094-16.246094-32-16.246094-8.929688 0-17.089844 3.039062-23.753906 8h-80.246094v-136h224v136zm-111.753906-152h-32v-16h32zm-200 184c-4.40625 0-8-3.59375-8-8v-8h19.390625c-2.160156 4.910156-3.390625 10.304688-3.390625 16zm48 24c-13.230469 0-24-10.769531-24-24s10.769531-24 24-24 24 10.769531 24 24-10.769531 24-24 24zm36.609375-40h19.390625v16h-16c0-5.695312-1.230469-11.089844-3.390625-16zm35.390625 16v-16h67.390625c-2.160156 4.910156-3.390625 10.304688-3.390625 16zm104 24c-13.230469 0-24-10.769531-24-24s10.769531-24 24-24 24 10.769531 24 24-10.769531 24-24 24zm64 0c-13.230469 0-24-10.769531-24-24s10.769531-24 24-24 24 10.769531 24 24-10.769531 24-24 24zm48-24h-8c0-5.695312-1.230469-11.089844-3.390625-16h19.390625v8c0 4.40625-3.59375 8-8 8zm88-40h-32v-16h32zm32-8c0 4.40625-3.59375 8-8 8h-8v-32h-64v32h-8c-4.40625 0-8-3.59375-8-8v-80c0-4.40625 3.59375-8 8-8h8v32h64v-32h8c4.40625 0 8 3.59375 8 8zm-16-104h-16v-144h-144v-48h-192v176h16v24h-32v-216h368zm0 0"/><path d="m200 304v104h112v-104zm96 88h-80v-72h80zm0 0"/><path d="m112 48h336v16h-336zm0 0"/></svg>