<?xml version="1.0" encoding="iso-8859-1"?>
<!-- Generator: Adobe Illustrator 19.0.0, SVG Export Plug-In . SVG Version: 6.00 Build 0)  -->
<svg version="1.1" id="Capa_1" xmlns="http://www.w3.org/2000/svg" xmlns:xlink="http://www.w3.org/1999/xlink" x="0px" y="0px"
	 viewBox="0 0 496 496" style="enable-background:new 0 0 496 496;" xml:space="preserve">
<rect x="128" y="454.36" style="fill:#AFB8C9;" width="240" height="32"/>
<rect x="24" y="334.36" style="fill:#ECECEC;" width="448" height="120"/>
<rect x="24" y="334.36" style="fill:#B6C1CE;" width="448" height="24"/>
<rect x="184" y="342.36" style="fill:#798699;" width="128" height="112"/>
<g>
	<rect x="312" y="342.36" style="fill:#AFB8C9;" width="32" height="112"/>
	<rect x="232" y="342.36" style="fill:#AFB8C9;" width="32" height="112"/>
	<rect x="152" y="342.36" style="fill:#AFB8C9;" width="32" height="112"/>
</g>
<g>
	<rect x="312" y="430.36" style="fill:#8C95A4;" width="32" height="24"/>
	<rect x="232" y="430.36" style="fill:#8C95A4;" width="32" height="24"/>
	<rect x="152" y="430.36" style="fill:#8C95A4;" width="32" height="24"/>
	<rect x="312" y="342.36" style="fill:#8C95A4;" width="32" height="24"/>
	<rect x="232" y="342.36" style="fill:#8C95A4;" width="32" height="24"/>
	<rect x="152" y="342.36" style="fill:#8C95A4;" width="32" height="24"/>
</g>
<rect x="16" y="118.36" style="fill:#ECECEC;" width="464" height="184"/>
<g>
	<rect x="16" y="118.36" style="fill:#B6C1CE;" width="464" height="24"/>
	<rect x="16" y="278.36" style="fill:#B6C1CE;" width="464" height="24"/>
</g>
<g>
	<rect x="304" y="118.36" style="fill:#AFB8C9;" width="32" height="160"/>
	<rect x="160" y="118.36" style="fill:#AFB8C9;" width="32" height="160"/>
</g>
<g>
	<rect x="304" y="254.36" style="fill:#8C95A4;" width="32" height="24"/>
	<rect x="160" y="254.36" style="fill:#8C95A4;" width="32" height="24"/>
	<rect x="304" y="118.36" style="fill:#8C95A4;" width="32" height="24"/>
	<rect x="160" y="118.36" style="fill:#8C95A4;" width="32" height="24"/>
</g>
<rect x="192" y="118.36" style="fill:#39C3FC;" width="112" height="160"/>
<rect x="112" y="278.36" style="fill:#ECECEC;" width="272" height="32"/>
<g>
	<polygon style="fill:#FCD770;" points="424.48,34.728 408,14.36 391.52,34.728 368,44.92 381.336,67.696 383.28,86.36 
		432.72,86.36 434.664,67.696 448,44.92 	"/>
	<polygon style="fill:#FCD770;" points="328,14.36 311.52,34.728 288,44.92 301.336,67.696 303.28,86.36 352.72,86.36 
		354.664,67.696 368,44.92 344.48,34.728 	"/>
	<polygon style="fill:#FCD770;" points="248,14.36 231.52,34.728 208,44.92 221.336,67.696 223.28,86.36 272.72,86.36 
		274.664,67.696 288,44.92 264.48,34.728 	"/>
	<polygon style="fill:#FCD770;" points="168,14.36 151.52,34.728 128,44.92 141.336,67.696 143.28,86.36 192.72,86.36 
		194.664,67.696 208,44.92 184.48,34.728 	"/>
	<polygon style="fill:#FCD770;" points="88,14.36 71.52,34.728 48,44.92 61.336,67.696 63.28,86.36 112.72,86.36 114.664,67.696 
		128,44.92 104.48,34.728 	"/>
</g>
<rect x="8" y="86.36" style="fill:#D3A06C;" width="480" height="32"/>
<rect x="368" y="150.36" style="fill:#39C3FC;" width="80" height="80"/>
<path style="fill:#92E0C0;" d="M472,454.36c8.84,0,16-7.16,16-16s-7.16-16-16-16c-3.32,0-6.4,1.008-8.96,2.744
	c-2.176-6.24-8.056-10.744-15.04-10.744c-3.32,0-6.4,1.008-8.96,2.744c-2.176-6.24-8.056-10.744-15.04-10.744
	s-12.864,4.504-15.04,10.744c-2.56-1.736-5.64-2.744-8.96-2.744c-6.984,0-12.864,4.504-15.04,10.744
	c-2.56-1.736-5.64-2.744-8.96-2.744c-8.84,0-16,7.16-16,16s7.16,16,16,16H472z"/>
<polygon style="fill:#D3A06C;" points="112,302.36 8,302.36 8,334.36 128,334.36 368,334.36 488,334.36 488,302.36 384,302.36 "/>
<rect x="128" y="310.36" style="fill:#ECECEC;" width="240" height="32"/>
<rect x="48" y="150.36" style="fill:#39C3FC;" width="80" height="80"/>
<path style="fill:#92E0C0;" d="M24,454.36c-8.84,0-16-7.16-16-16s7.16-16,16-16c3.32,0,6.4,1.008,8.96,2.744
	c2.176-6.24,8.056-10.744,15.04-10.744c3.32,0,6.4,1.008,8.96,2.744c2.176-6.24,8.056-10.744,15.04-10.744
	s12.864,4.504,15.04,10.744c2.56-1.736,5.64-2.744,8.96-2.744c6.984,0,12.864,4.504,15.04,10.744c2.56-1.736,5.64-2.744,8.96-2.744
	c8.84,0,16,7.16,16,16s-7.16,16-16,16H24z"/>
<g>
	<rect x="368" y="454.36" style="fill:#ECECEC;" width="112" height="32"/>
	<rect x="16" y="454.36" style="fill:#ECECEC;" width="112" height="32"/>
</g>
<rect x="400" y="358.36" width="16" height="16"/>
<rect x="432" y="358.36" width="16" height="16"/>
<path d="M496,126.36v-48h-54.4l0.848-8.12l17.016-29.072l-30-13L408,1.64l-21.464,26.528L368,36.2l-18.536-8.032L328,1.64
	l-21.464,26.528L288,36.2l-18.536-8.032L248,1.64l-21.464,26.528L208,36.2l-18.536-8.032L168,1.64l-21.464,26.528L128,36.2
	l-18.536-8.032L88,1.64L66.536,28.176l-30,13l17.016,29.072L54.4,78.36H0v48h8v168H0v48h16v73.472c-9.288,3.312-16,12.112-16,22.528
	c0,7.064,3.128,13.36,8,17.76v38.24h120h8h224h8h120v-38.24c4.872-4.392,8-10.696,8-17.76c0-10.416-6.712-19.216-16-22.528V342.36
	h16v-48h-8v-168H496z M396.504,41.288L408,27.08l11.496,14.208l17.04,7.376l-9.648,16.472l-1.376,13.224h-35.024l-1.376-13.216
	l-9.648-16.472L396.504,41.288z M368,60.752l5.552,9.488l0.848,8.12h-12.8l0.848-8.12L368,60.752z M316.504,41.288L328,27.08
	l11.496,14.208l17.04,7.376l-9.648,16.472l-1.376,13.224h-35.024l-1.376-13.216l-9.648-16.472L316.504,41.288z M288,60.752
	l5.552,9.488l0.848,8.12h-12.8l0.848-8.12L288,60.752z M236.504,41.288L248,27.08l11.496,14.208l17.04,7.376l-9.648,16.472
	l-1.376,13.224h-35.024l-1.376-13.216l-9.648-16.472L236.504,41.288z M208,60.752l5.552,9.488l0.848,8.12h-12.8l0.848-8.12
	L208,60.752z M156.504,41.288L168,27.08l11.496,14.208l17.04,7.376l-9.648,16.472l-1.376,13.224h-35.024l-1.376-13.216
	l-9.648-16.472L156.504,41.288z M128,60.752l5.552,9.488l0.848,8.12h-12.8l0.848-8.12L128,60.752z M69.112,65.144l-9.648-16.472
	l17.04-7.376L88,27.08l11.496,14.208l17.04,7.376l-9.648,16.472l-1.376,13.224H70.488L69.112,65.144z M16,94.36h464v16H16V94.36z
	 M320,446.36v-96h16v96H320z M176,350.36v96h-16v-96H176z M192,350.36h32v96h-32V350.36z M240,350.36h16v96h-16V350.36z M272,350.36
	h32v96h-32V350.36z M136,334.36v-16h224v16H136z M120,326.36H16v-16h88v8h16V326.36z M120,302.36v-16h256v16H120z M184,126.36v144
	h-16v-144H184z M256,270.36v-40h40v40H256z M296,214.36h-40v-32h40V214.36z M240,214.36h-40v-32h40V214.36z M200,230.36h40v40h-40
	V230.36z M296,166.36h-40v-40h40V166.36z M240,166.36h-40v-40h40V166.36z M312,270.36v-144h16v144H312z M24,126.36h128v144h-48v24
	H24V126.36z M120,342.36v8h24v88v8h-1.472c0.896-2.512,1.472-5.184,1.472-8c0-13.232-10.768-24-24-24
	c-1.904,0-3.792,0.224-5.616,0.664c-5.648-6.792-15.248-10.088-24-8C85.92,401.648,79.232,398.36,72,398.36
	s-13.92,3.288-18.384,8.664c-7.592-1.824-15.872,0.448-21.616,5.544V342.36H120z M24,430.36c1.608,0,3.152,0.472,4.472,1.368
	l8.608,5.832l3.432-9.808c1.672-4.76,7.888-6.784,11.96-4.016l8.608,5.832l3.432-9.808c1.128-3.232,4.136-5.4,7.488-5.4
	s6.36,2.168,7.496,5.384l3.432,9.8l8.6-5.824c4.096-2.768,10.304-0.744,11.968,4.016l3.432,9.8l8.6-5.824
	c1.32-0.88,2.864-1.352,4.472-1.352c4.408,0,8,3.592,8,8s-3.592,8-8,8H24c-4.408,0-8-3.592-8-8S19.592,430.36,24,430.36z
	 M120,478.36H24v-16h96V478.36z M136,478.36v-16h224v16H136z M467.52,431.728c1.328-0.896,2.872-1.368,4.48-1.368
	c4.408,0,8,3.592,8,8s-3.592,8-8,8h-96c-4.408,0-8-3.592-8-8s3.592-8,8-8c1.608,0,3.152,0.472,4.48,1.368l8.6,5.824l3.432-9.8
	c1.672-4.76,7.872-6.784,11.968-4.016l8.6,5.824l3.432-9.8c1.128-3.232,4.136-5.4,7.488-5.4s6.36,2.168,7.496,5.384l3.432,9.8
	l8.6-5.824c4.088-2.768,10.304-0.744,11.968,4.016l3.432,9.8L467.52,431.728z M472,478.36h-96v-16h96V478.36z M464,412.568
	c-5.736-5.096-14.008-7.368-21.616-5.544c-4.464-5.376-11.152-8.664-18.384-8.664s-13.92,3.288-18.384,8.664
	c-8.752-2.096-18.352,1.208-24,8c-1.824-0.44-3.712-0.664-5.616-0.664c-13.232,0-24,10.768-24,24c0,2.816,0.576,5.488,1.472,8H352
	v-8v-88h24v-8h88V412.568z M480,326.36H376v-8h16v-8h88V326.36z M472,294.36h-80v-24h-48v-144h128V294.36z"/>
<path d="M456,238.36v-96h-96v96H456z M376,198.36h24v24h-24V198.36z M416,222.36v-24h24v24H416z M440,182.36h-24v-24h24V182.36z
	 M400,158.36v24h-24v-24H400z"/>
<rect x="80" y="358.36" width="16" height="16"/>
<rect x="48" y="358.36" width="16" height="16"/>
<path d="M136,142.36H40v96h96V142.36z M120,182.36H96v-24h24V182.36z M80,158.36v24H56v-24H80z M56,198.36h24v24H56V198.36z
	 M96,222.36v-24h24v24H96z"/>
<g>
</g>
<g>
</g>
<g>
</g>
<g>
</g>
<g>
</g>
<g>
</g>
<g>
</g>
<g>
</g>
<g>
</g>
<g>
</g>
<g>
</g>
<g>
</g>
<g>
</g>
<g>
</g>
<g>
</g>
</svg>
