<svg fill="#ffffff" height="512" viewBox="0 0 512 512" width="512" xmlns="http://www.w3.org/2000/svg"><g id="Email"><path d="m496 144h-320a8 8 0 0 0 -8 8v208a8 8 0 0 0 8 8h320a8 8 0 0 0 8-8v-208a8 8 0 0 0 -8-8zm-221.429 90.23 57.851 28.925a8 8 0 0 0 7.156 0l57.851-28.925 83.131 117.77h-289.12zm-90.571 100.564v-145.85l76.1 38.048zm227.9-107.8 76.1-38.05v145.85zm76.1-66.994v11.056l-152 76-152-76v-11.056z"/><path d="m264 328h-40a8 8 0 0 0 0 16h40a8 8 0 0 0 0-16z"/><path d="m296 328h-8a8 8 0 0 0 0 16h8a8 8 0 0 0 0-16z"/><path d="m144 248h-128a8 8 0 0 0 0 16h128a8 8 0 0 0 0-16z"/><path d="m152 216h-64a8 8 0 0 0 0 16h64a8 8 0 0 0 0-16z"/><path d="m96 280h-64a8 8 0 0 0 0 16h64a8 8 0 0 0 0-16z"/><path d="m128 280h-8a8 8 0 0 0 0 16h8a8 8 0 0 0 0-16z"/><path d="m56 232h8a8 8 0 0 0 0-16h-8a8 8 0 0 0 0 16z"/></g></svg>