<svg fill="#FFFFFF" viewBox="0 -28 512 512" xmlns="http://www.w3.org/2000/svg"><path d="m0 0v355.351562h307.613281l113.148438 100.613282.003906-100.613282h91.234375v-355.351562zm482 325.347656h-91.234375v63.792969l-71.742187-63.792969h-289.023438v-295.347656h452zm0 0"/><path d="m140.960938 202.390625c-5.0625 0-9.179688-4.117187-9.179688-9.179687h-30c0 21.601562 17.574219 39.179687 39.179688 39.179687 21.605468 0 39.179687-17.578125 39.179687-39.179687 0-21.605469-17.574219-39.179688-39.179687-39.179688-3.492188 0-6.335938-2.84375-6.335938-6.335938 0-3.492187 2.84375-6.335937 6.335938-6.335937 3.492187 0 6.335937 2.84375 6.335937 6.335937h30c0-20.035156-16.300781-36.335937-36.335937-36.335937-20.035157 0-36.335938 16.300781-36.335938 36.335937 0 20.035157 16.300781 36.335938 36.335938 36.335938 5.0625 0 9.179687 4.117188 9.179687 9.179688s-4.117187 9.179687-9.179687 9.179687zm0 0"/><path d="m371.039062 202.390625c-5.0625 0-9.179687-4.117187-9.179687-9.179687h-30c0 21.601562 17.574219 39.179687 39.179687 39.179687 21.605469 0 39.179688-17.578125 39.179688-39.179687 0-21.605469-17.574219-39.179688-39.179688-39.179688-3.492187 0-6.335937-2.84375-6.335937-6.335938 0-3.492187 2.84375-6.335937 6.335937-6.335937 3.492188 0 6.335938 2.84375 6.335938 6.335937h30c0-20.035156-16.300781-36.335937-36.335938-36.335937-20.035156 0-36.335937 16.300781-36.335937 36.335937 0 20.035157 16.300781 36.335938 36.335937 36.335938 5.0625 0 9.179688 4.117188 9.179688 9.179688s-4.117188 9.179687-9.179688 9.179687zm0 0"/><path d="m222.640625 150.539062c0-5.058593 4.117187-9.179687 9.179687-9.179687s9.179688 4.121094 9.179688 9.179687v78.449219h30v-78.449219c0-5.058593 4.117188-9.179687 9.179688-9.179687s9.179687 4.121094 9.179687 9.179687v78.449219h30v-78.449219c0-21.601562-17.574219-39.179687-39.179687-39.179687-9.117188 0-17.515626 3.144531-24.179688 8.386719-6.664062-5.242188-15.058594-8.386719-24.179688-8.386719-21.601562 0-39.179687 17.578125-39.179687 39.179687v78.449219h30zm0 0"/></svg>