<svg version="1.0" xmlns="http://www.w3.org/2000/svg" width="1600px" height="1131px" viewBox="0 0 16000 11310" preserveAspectRatio="xMidYMid meet">
  <g id="goodwinds-blades" fill="#75c8ce" stroke="none">
    <path d="M10990 10433 c0 -5 -169 -179 -375 -388 l-374 -380 -1 351 c0 412 8 384 -110 384 -58 0 -76 -4 -86 -17 -11 -15 -13 -131 -14 -594 l0 -577 25 -4 c26 -5 24 -7 330 307 44 46 164 169 268 274 l187 192 0 -359 c0 -265 3 -361 12 -370 7 -7 43 -12 93 -12 50 0 86 5 93 12 9 9 12 154 12 590 0 561 -1 578 -19 588 -23 12 -41 13 -41 3z"/>
    <path d="M2910 10412 c-276 -66 -470 -312 -470 -596 0 -154 41 -270 134 -381 91 -107 167 -160 291 -200 78 -26 91 -27 231 -23 129 4 159 8 222 31 128 46 282 156 282 201 0 32 -135 159 -149 139 -23 -35 -130 -105 -202 -133 -79 -30 -90 -32 -189 -28 -92 3 -113 7 -170 34 -248 119 -312 421 -131 625 131 149 412 182 582 70 46 -31 101 -97 113 -138 l7 -23 -128 0 c-87 0 -133 -4 -141 -12 -16 -16 -16 -170 0 -186 9 -9 79 -12 254 -12 204 0 244 2 254 15 18 21 5 160 -21 239 -60 177 -207 325 -373 373 -83 23 -306 26 -396 5z"/>
    <path d="M4315 10411 c-110 -28 -189 -74 -280 -165 -127 -126 -185 -264 -185 -436 0 -258 172 -487 432 -574 66 -23 94 -26 203 -26 109 0 137 3 203 26 309 104 488 409 417 714 -18 76 -84 212 -123 255 -54 58 -148 133 -202 160 -126 64 -320 83 -465 46z m275 -207 c172 -40 298 -190 308 -366 10 -166 -70 -298 -226 -375 -75 -37 -78 -38 -191 -38 -109 0 -120 2 -181 31 -74 35 -154 111 -193 182 -51 94 -50 261 1 356 56 103 167 185 285 211 82 18 119 18 197 -1z"/>
    <path d="M5725 10411 c-180 -45 -341 -184 -420 -361 -38 -86 -52 -211 -38 -326 27 -218 195 -411 425 -488 66 -23 94 -26 203 -26 109 0 137 3 203 26 230 77 394 269 423 494 18 150 -14 301 -92 422 -43 67 -162 174 -234 210 -130 66 -322 86 -470 49z m275 -207 c120 -28 223 -114 279 -233 23 -49 26 -69 26 -156 0 -93 -2 -105 -32 -166 -41 -82 -111 -150 -201 -192 -63 -30 -73 -32 -182 -32 -108 0 -119 2 -180 31 -99 47 -193 151 -221 246 -5 18 -10 73 -10 122 0 77 4 96 29 150 53 113 168 203 295 231 82 18 119 18 197 -1z"/>
    <path d="M12628 10411 c-116 -37 -202 -113 -263 -232 -41 -79 -33 -99 47 -122 102 -28 128 -31 128 -16 0 25 68 116 102 137 90 56 208 43 256 -28 19 -29 23 -45 20 -87 -8 -90 -44 -118 -300 -238 -75 -34 -162 -114 -196 -179 -37 -71 -38 -178 -3 -251 32 -65 91 -121 166 -156 53 -26 71 -29 156 -29 144 0 244 37 329 123 27 28 50 53 50 56 0 8 -147 131 -156 131 -3 0 -31 -21 -61 -47 -51 -44 -60 -47 -119 -51 -78 -5 -104 1 -143 34 -23 19 -31 34 -31 59 0 44 36 78 138 129 42 21 105 52 140 70 81 40 170 120 204 182 39 72 54 166 39 245 -16 82 -46 134 -115 197 -97 88 -250 117 -388 73z"/>
    <path d="M8216 10343 c-16 -38 -51 -120 -79 -183 -27 -63 -62 -145 -78 -182 -57 -134 -88 -204 -113 -261 -14 -32 -26 -60 -26 -62 0 -2 -11 -28 -24 -57 -120 -270 -138 -316 -126 -339 10 -18 20 -19 101 -17 l90 3 33 75 c50 113 157 361 197 455 5 11 26 59 47 107 l39 88 23 -58 c13 -31 39 -93 58 -137 19 -44 47 -109 62 -145 177 -414 180 -420 207 -420 28 0 17 -23 228 465 101 235 120 275 127 275 4 0 16 -24 26 -52 11 -29 34 -84 52 -123 43 -96 44 -99 85 -195 20 -47 45 -104 56 -127 10 -24 19 -45 19 -48 0 -2 11 -28 24 -57 13 -29 28 -65 34 -80 11 -28 12 -28 107 -28 92 0 95 1 101 24 4 16 -4 47 -22 88 -76 176 -99 227 -120 276 -13 29 -24 55 -24 57 0 2 -11 28 -24 57 -31 70 -74 170 -126 293 -40 94 -94 217 -142 328 -18 39 -26 47 -48 47 -28 0 -30 -2 -95 -155 -33 -76 -88 -203 -100 -230 -14 -31 -87 -198 -110 -250 -7 -16 -20 -47 -29 -68 -14 -34 -36 -43 -36 -15 0 9 -13 41 -89 213 -10 22 -31 69 -46 105 -16 36 -46 106 -67 155 -22 50 -47 106 -55 125 -49 115 -52 120 -81 120 -25 0 -31 -7 -56 -67z"/>
    <path d="M6732 10388 c-9 -9 -12 -148 -12 -564 0 -304 3 -559 6 -568 5 -14 32 -16 193 -16 209 0 314 14 411 55 142 60 252 182 305 339 36 106 36 256 0 363 -75 223 -255 360 -517 393 -117 14 -371 13 -386 -2z m380 -208 c65 -9 160 -45 194 -72 95 -77 136 -159 142 -281 4 -83 2 -91 -31 -160 -76 -158 -163 -207 -399 -223 l-98 -7 0 376 0 377 63 0 c34 0 92 -5 129 -10z"/>
    <path d="M11283 10389 c-18 -18 -19 -1119 -1 -1137 18 -18 350 -16 454 2 99 18 189 55 259 106 156 115 250 350 216 537 -45 244 -199 413 -431 473 -107 27 -476 42 -497 19z m468 -229 c159 -54 251 -182 250 -347 0 -76 -18 -138 -58 -198 -78 -118 -162 -156 -375 -171 l-98 -7 0 378 0 378 110 -6 c69 -4 132 -14 171 -27z"/>
    <path d="M9940 6705 c0 -1896 0 -1916 19 -1905 11 5 26 18 33 29 7 10 425 433 928 940 503 507 916 928 918 935 1 6 -158 174 -354 371 -1147 1157 -1533 1545 -1538 1545 -3 0 -6 -862 -6 -1915z m1219 532 l525 -527 -44 -46 c-79 -81 -1446 -1457 -1540 -1549 l-50 -49 0 1643 0 1643 292 -293 c160 -162 528 -531 817 -822z"/>
    <path d="M7100 7472 c0 -4 183 -189 408 -411 916 -908 1558 -1545 1919 -1905 210 -209 385 -377 389 -373 4 4 2 573 -5 1264 -6 692 -11 1297 -11 1346 l0 87 -1350 0 c-742 0 -1350 -3 -1350 -8z m2593 -1254 c4 -633 6 -1153 4 -1154 -2 -2 -145 137 -318 309 -173 172 -696 692 -1164 1155 l-849 842 1160 0 1161 0 6 -1152z"/>
    <path d="M12714 7308 c-26 -29 -568 -577 -1204 -1217 -635 -641 -1215 -1225 -1287 -1299 -73 -73 -133 -138 -133 -144 0 -11 1050 -7 2213 9 l487 6 0 1349 c0 1131 -2 1348 -14 1348 -7 0 -35 -24 -62 -52z m-49 -2527 c-6 -5 -2296 -29 -2304 -24 -2 1 158 166 356 365 463 466 918 926 1491 1505 l457 462 3 -1151 c1 -633 0 -1154 -3 -1157z"/>
    <path d="M7339 6159 c-860 -853 -1519 -1510 -1519 -1514 0 -3 862 -5 1915 -5 1053 0 1915 3 1915 7 0 5 -188 194 -417 422 -230 227 -659 654 -954 947 -296 294 -539 534 -541 534 -2 0 -182 -176 -399 -391z m1227 -596 l818 -813 -1642 0 c-903 0 -1642 3 -1642 8 0 4 48 54 108 112 59 57 426 421 816 808 390 386 712 701 716 700 4 -2 376 -369 826 -815z"/>
    <path d="M11015 3535 c528 -525 962 -954 965 -954 3 0 437 429 965 954 l960 954 -1925 0 -1925 0 960 -954z m2604 841 c-168 -177 -1629 -1621 -1639 -1621 -5 0 -331 320 -725 710 -394 391 -756 748 -803 795 -48 47 -93 93 -101 103 -13 16 78 17 1629 17 904 0 1641 -2 1639 -4z"/>
    <path d="M8063 4466 c-617 -6 -1124 -14 -1127 -17 -3 -3 -5 -612 -4 -1353 l3 -1347 511 513 c281 282 774 778 1095 1102 321 324 698 703 837 842 138 139 252 258 252 264 0 11 57 11 -1567 -4z m925 -483 c-206 -208 -611 -616 -899 -907 -288 -291 -642 -647 -786 -793 l-263 -264 0 1161 0 1160 308 1 c169 1 570 5 892 8 322 4 706 8 854 9 l270 2 -376 -377z"/>
    <path d="M9535 4096 c-1317 -1328 -1625 -1641 -1625 -1649 0 -13 1889 -1917 1902 -1917 5 0 8 864 8 1920 0 1056 -3 1920 -7 1919 -5 0 -129 -123 -278 -273z m165 -1649 l0 -1643 -307 310 c-170 170 -425 427 -568 571 -143 145 -372 375 -509 513 l-249 251 699 703 c385 387 751 756 814 821 62 64 115 117 117 117 2 0 3 -739 3 -1643z"/>
    <path d="M9960 3017 l0 -1354 643 -6 c1790 -19 2057 -20 2057 -10 0 5 -365 379 -812 829 -447 450 -1051 1060 -1343 1355 -291 295 -533 537 -537 537 -5 1 -8 -607 -8 -1351z m618 569 c235 -236 542 -545 682 -686 140 -142 453 -457 694 -700 l439 -442 -1049 6 c-577 3 -1097 9 -1156 12 l-108 6 0 1151 0 1151 36 -35 c20 -18 228 -227 462 -463z"/>
  </g>
  <g id="goodwinds-tower" fill="#75c8ce" stroke="none">
    <path d="M9600 9145 l0 -1285 110 0 110 0 0 1285 0 1285 -110 0 -110 0 0 -1285z"/>
  </g>
  <g id="goodwinds-text" fill="#ffffff" stroke="none">
    <path d="M10990 10433 c0 -5 -169 -179 -375 -388 l-374 -380 -1 351 c0 412 8 384 -110 384 -58 0 -76 -4 -86 -17 -11 -15 -13 -131 -14 -594 l0 -577 25 -4 c26 -5 24 -7 330 307 44 46 164 169 268 274 l187 192 0 -359 c0 -265 3 -361 12 -370 7 -7 43 -12 93 -12 50 0 86 5 93 12 9 9 12 154 12 590 0 561 -1 578 -19 588 -23 12 -41 13 -41 3z"/>
    <path d="M2910 10412 c-276 -66 -470 -312 -470 -596 0 -154 41 -270 134 -381 91 -107 167 -160 291 -200 78 -26 91 -27 231 -23 129 4 159 8 222 31 128 46 282 156 282 201 0 32 -135 159 -149 139 -23 -35 -130 -105 -202 -133 -79 -30 -90 -32 -189 -28 -92 3 -113 7 -170 34 -248 119 -312 421 -131 625 131 149 412 182 582 70 46 -31 101 -97 113 -138 l7 -23 -128 0 c-87 0 -133 -4 -141 -12 -16 -16 -16 -170 0 -186 9 -9 79 -12 254 -12 204 0 244 2 254 15 18 21 5 160 -21 239 -60 177 -207 325 -373 373 -83 23 -306 26 -396 5z"/>
    <path d="M4315 10411 c-110 -28 -189 -74 -280 -165 -127 -126 -185 -264 -185 -436 0 -258 172 -487 432 -574 66 -23 94 -26 203 -26 109 0 137 3 203 26 309 104 488 409 417 714 -18 76 -84 212 -123 255 -54 58 -148 133 -202 160 -126 64 -320 83 -465 46z m275 -207 c172 -40 298 -190 308 -366 10 -166 -70 -298 -226 -375 -75 -37 -78 -38 -191 -38 -109 0 -120 2 -181 31 -74 35 -154 111 -193 182 -51 94 -50 261 1 356 56 103 167 185 285 211 82 18 119 18 197 -1z"/>
    <path d="M5725 10411 c-180 -45 -341 -184 -420 -361 -38 -86 -52 -211 -38 -326 27 -218 195 -411 425 -488 66 -23 94 -26 203 -26 109 0 137 3 203 26 230 77 394 269 423 494 18 150 -14 301 -92 422 -43 67 -162 174 -234 210 -130 66 -322 86 -470 49z m275 -207 c120 -28 223 -114 279 -233 23 -49 26 -69 26 -156 0 -93 -2 -105 -32 -166 -41 -82 -111 -150 -201 -192 -63 -30 -73 -32 -182 -32 -108 0 -119 2 -180 31 -99 47 -193 151 -221 246 -5 18 -10 73 -10 122 0 77 4 96 29 150 53 113 168 203 295 231 82 18 119 18 197 -1z"/>
    <path d="M12628 10411 c-116 -37 -202 -113 -263 -232 -41 -79 -33 -99 47 -122 102 -28 128 -31 128 -16 0 25 68 116 102 137 90 56 208 43 256 -28 19 -29 23 -45 20 -87 -8 -90 -44 -118 -300 -238 -75 -34 -162 -114 -196 -179 -37 -71 -38 -178 -3 -251 32 -65 91 -121 166 -156 53 -26 71 -29 156 -29 144 0 244 37 329 123 27 28 50 53 50 56 0 8 -147 131 -156 131 -3 0 -31 -21 -61 -47 -51 -44 -60 -47 -119 -51 -78 -5 -104 1 -143 34 -23 19 -31 34 -31 59 0 44 36 78 138 129 42 21 105 52 140 70 81 40 170 120 204 182 39 72 54 166 39 245 -16 82 -46 134 -115 197 -97 88 -250 117 -388 73z"/>
    <path d="M8216 10343 c-16 -38 -51 -120 -79 -183 -27 -63 -62 -145 -78 -182 -57 -134 -88 -204 -113 -261 -14 -32 -26 -60 -26 -62 0 -2 -11 -28 -24 -57 -120 -270 -138 -316 -126 -339 10 -18 20 -19 101 -17 l90 3 33 75 c50 113 157 361 197 455 5 11 26 59 47 107 l39 88 23 -58 c13 -31 39 -93 58 -137 19 -44 47 -109 62 -145 177 -414 180 -420 207 -420 28 0 17 -23 228 465 101 235 120 275 127 275 4 0 16 -24 26 -52 11 -29 34 -84 52 -123 43 -96 44 -99 85 -195 20 -47 45 -104 56 -127 10 -24 19 -45 19 -48 0 -2 11 -28 24 -57 13 -29 28 -65 34 -80 11 -28 12 -28 107 -28 92 0 95 1 101 24 4 16 -4 47 -22 88 -76 176 -99 227 -120 276 -13 29 -24 55 -24 57 0 2 -11 28 -24 57 -31 70 -74 170 -126 293 -40 94 -94 217 -142 328 -18 39 -26 47 -48 47 -28 0 -30 -2 -95 -155 -33 -76 -88 -203 -100 -230 -14 -31 -87 -198 -110 -250 -7 -16 -20 -47 -29 -68 -14 -34 -36 -43 -36 -15 0 9 -13 41 -89 213 -10 22 -31 69 -46 105 -16 36 -46 106 -67 155 -22 50 -47 106 -55 125 -49 115 -52 120 -81 120 -25 0 -31 -7 -56 -67z"/>
    <path d="M6732 10388 c-9 -9 -12 -148 -12 -564 0 -304 3 -559 6 -568 5 -14 32 -16 193 -16 209 0 314 14 411 55 142 60 252 182 305 339 36 106 36 256 0 363 -75 223 -255 360 -517 393 -117 14 -371 13 -386 -2z m380 -208 c65 -9 160 -45 194 -72 95 -77 136 -159 142 -281 4 -83 2 -91 -31 -160 -76 -158 -163 -207 -399 -223 l-98 -7 0 376 0 377 63 0 c34 0 92 -5 129 -10z"/>
    <path d="M11283 10389 c-18 -18 -19 -1119 -1 -1137 18 -18 350 -16 454 2 99 18 189 55 259 106 156 115 250 350 216 537 -45 244 -199 413 -431 473 -107 27 -476 42 -497 19z m468 -229 c159 -54 251 -182 250 -347 0 -76 -18 -138 -58 -198 -78 -118 -162 -156 -375 -171 l-98 -7 0 378 0 378 110 -6 c69 -4 132 -14 171 -27z"/>
    <path d="M10818 4643 c57 -2 147 -2 200 0 53 1 7 3 -103 3 -110 0 -154 -2 -97 -3z"/>
  </g>
</svg>